<svg height="288.060277" viewBox="0 0 93.64 77.904" width="347.149565" xmlns="http://www.w3.org/2000/svg"><g transform="translate(-142 -86)"><path d="m142 144.71v7.5059h.89258v-5.3398l5.377 5.6348v-7.459h-.89258v5.293l-5.377-5.6348zm28.254 0v7.5059h.89257v-5.3398l5.377 5.6348v-7.459h-.89258v5.293l-5.377-5.6348zm-17.957.03906-3.4199 7.4668h.96094l.81641-1.7949h3.2871l.8164 1.7949h.95899l-3.4199-7.4668zm28.254 0-3.4199 7.4668h.96094l.8164-1.7949h3.2871l.81641 1.7949h.95898l-3.4199-7.4668zm13.365 0-3.4199 7.4668h.96094l.81641-1.7949h3.2871l.8164 1.7949h.95899l-3.4199-7.4668zm13.148 0-3.4199 7.4668h.95899l.8164-1.7949h3.2891l.81446 1.7949h.96094l-3.4199-7.4668zm16.473 0-1.4629 7.4668h.92187l.83594-4.7305h.01758l2.1465 4.8828 2.1465-4.8828h.02148l.83594 4.7305h.91992l-1.4629-7.4668-2.4609 5.6426-2.459-5.6426zm-22.098.15039c-2.108 0-3.8086 1.6548-3.8086 3.7734 0 2.0707 1.6911 3.6934 3.7324 3.6934.628 0 1.3322-.17929 1.8828-.50195v-1.0547c-.532.47466-1.2075.74219-1.9102.74219-1.596 0-2.8125-1.3402-2.8125-2.9082 0-1.5853 1.2267-2.9258 2.832-2.9258.67466 0 1.3773.24713 1.8906.70313v-1.0352c-.54133-.33333-1.1786-.48633-1.8066-.48633zm-35.812.00195c-2.0507 0-3.752 1.6804-3.752 3.7324 0 2.128 1.6813 3.7344 3.752 3.7344 2.072 0 3.752-1.6064 3.752-3.7344 0-2.052-1.7-3.7324-3.752-3.7324zm-5.5762.1504v7.1641h.89453v-7.1641zm-5.0625.00195v.8164h1.6992v6.3457h.89453v-6.3457h1.6992v-.8164h-4.293zm29.676 0v7.1621h3.0684v-.81836h-2.1758v-6.3438h-.89258zm26.438 0v7.1621h1.4531c2.2613 0 4.0469-1.1778 4.0469-3.6191 0-2.3853-1.8229-3.543-4.0176-3.543zm6.4883 0v7.1621h3.8477v-.81836h-2.9551v-2.7051h2.8691v-.81836h-2.8691v-2.0039h2.9551v-.8164h-3.8477zm12.482 0 2.3379 4.0469v3.1152h.89257v-3.1152l2.3359-4.0469h-1.0234l-1.7598 3.0586-1.7578-3.0586h-1.0254zm-64.445.68359c1.6827 0 2.8594 1.3192 2.8594 2.8965 0 1.6333-1.31 2.8984-2.8594 2.8984-1.548 0-2.8594-1.2651-2.8594-2.8984 0-1.5773 1.178-2.8965 2.8594-2.8965zm46.367.13281h.31445c1.824 0 3.4004.67435 3.4004 2.7637 0 2.08-1.5764 2.7637-3.4004 2.7637h-.31445zm-59.697.83594 1.2734 2.8965h-2.5469l1.2734-2.8965zm28.254 0 1.2734 2.8965h-2.5469l1.2734-2.8965zm13.365 0 1.2734 2.8965h-2.5469l1.2734-2.8965zm13.148 0 1.2734 2.8965h-2.5469l1.2734-2.8965zm-12.859 9.4043v7.5059h.89453v-5.3398l5.375 5.6328v-7.457h-.89063v5.291l-5.3789-5.6328zm-30.977.18945c-2.052 0-3.7539 1.6837-3.7539 3.7344 0 2.128 1.6819 3.7324 3.7539 3.7324 2.0707 0 3.752-1.6044 3.752-3.7324 0-2.0507-1.7013-3.7344-3.752-3.7344zm14.201 0c-1.0827 0-2.1094.69352-2.1094 1.8535 0 .996.74126 1.4624 1.5586 1.8144l.49218.20899c.61867.25599 1.2363.58808 1.2363 1.3574 0 .75066-.54964 1.3965-1.3203 1.3965-.76933 0-1.396-.57004-1.3867-1.3594l-.90234.1914c.152 1.1493 1.0542 2.0039 2.2129 2.0039 1.2827 0 2.2891-.93109 2.2891-2.2324 0-1.1973-.75939-1.7562-1.7754-2.1562l-.51367-.19922c-.44667-.17067-.99805-.46539-.99805-1.0254 0-.628.62793-1.0156 1.1973-1.0156.54133 0 .88505.2285 1.1504.67383l.71289-.42969c-.39067-.69333-1.0451-1.082-1.8438-1.082zm6.5547 0c-2.108 0-3.8106 1.6528-3.8106 3.7715 0 2.0707 1.693 3.6973 3.7344 3.6973.628 0 1.3302-.1799 1.8809-.5039v-1.0547c-.532.47466-1.2075.74023-1.9102.74023-1.596 0-2.8106-1.3396-2.8106-2.9062 0-1.5867 1.2248-2.9277 2.8301-2.9277.67466 0 1.3773.24908 1.8906.70508v-1.0371c-.54133-.332-1.1767-.48438-1.8047-.48438zm21.27 0c-2.108 0-3.8106 1.6528-3.8106 3.7715 0 2.0707 1.693 3.6973 3.7344 3.6973.628 0 1.3302-.1799 1.8809-.5039v-1.0547c-.532.47466-1.2055.74023-1.9082.74023-1.596 0-2.8125-1.3396-2.8125-2.9062 0-1.5867 1.2248-2.9277 2.8301-2.9277.67466 0 1.3773.24908 1.8906.70508v-1.0371c-.54133-.332-1.1767-.48438-1.8047-.48438zm10.061 0c-1.084 0-2.1094.69352-2.1094 1.8535 0 .996.74064 1.4624 1.5566 1.8144l.49414.20899c.61867.25599 1.2363.58808 1.2363 1.3574 0 .75066-.55098 1.3965-1.3203 1.3965-.76934 0-1.3974-.57004-1.3867-1.3594l-.90235.1914c.152 1.1493 1.0542 2.0039 2.2129 2.0039 1.2827 0 2.2891-.93109 2.2891-2.2324 0-1.1973-.7594-1.7562-1.7754-2.1562l-.51368-.19922c-.44666-.17067-.99804-.46539-.99804-1.0254 0-.628.6266-1.0156 1.1973-1.0156.54133 0 .88373.2285 1.1504.67383l.71094-.42969c-.38933-.69333-1.0431-1.082-1.8418-1.082zm-47.385.15235v7.1621h.89258v-3.5137h2.4902v-.8164h-2.4902v-2.0156h2.5762v-.8164h-3.4688zm18.99 0v7.1621h.89258v-7.1621zm2.3262 0v7.1621h3.8496v-.81641h-2.9551v-2.707h2.8672v-.81641h-2.8672v-2.0039h2.9551v-.81835h-3.8496zm18.973 0v7.1621h3.8477v-.81641h-2.9551v-2.707h2.8672v-.81641h-2.8672v-2.0039h2.9551v-.81835h-3.8477zm-44.99.68359c1.6813 0 2.8594 1.3211 2.8594 2.8984 0 1.6333-1.3114 2.8965-2.8594 2.8965-1.5493 0-2.8594-1.2632-2.8594-2.8965 0-1.5773 1.1767-2.8984 2.8594-2.8984z" fill="#231f20"/><g stroke-width=".215"><path d="m0 0c0-11.207-9.085-20.292-20.292-20.292s-20.292 9.085-20.292 20.292 9.085 20.292 20.292 20.292 20.292-9.085 20.292-20.292" fill="#a8996e" stroke="#a8996e" transform="matrix(1.3333 0 0 -1.3333 215.2 113.2)"/><path d="m0 0c0-8.425-6.83-15.255-15.255-15.255s-15.254 6.83-15.254 15.255 6.829 15.254 15.254 15.254 15.255-6.829 15.255-15.254" fill="#a8996e" stroke="#fff" transform="matrix(1.3333 0 0 -1.3333 208.37 113.03)"/><path d="m0 0c.618-.43.168-1.617.168-1.617s.086-.528.187-.9l-.263-.088-.029-.248-.204-.029.039-.157-.214-.164s-.002-.125.014-.365c.014-.191-.379-.328-.744-.19-.07.026-.231.104-.307.029-.108-.106-.158-.419-.078-.539.117-.175.738-.429 1.801-.429.943 0 2.616-.6 3.774-.672.57-.035 3.627.093 5.014.02 1.241-.066 2.336.262 4.789-.351.417-.104.04-.446-.818-.35-.782.088-1.363-.116-1.62-.088-.258.029.64-.067 1.226-.262.438-.146-.078-.348-.993-.234s-1.317-.518-1.881.293c-.323.466-2.63-.6-4.206-.643-1.752-.049-2.09.066-2.964.102-1.416.058-2.18.235-2.187.114-.008-.171.168-.978.08-1.66-.102-.801-.426-1.15-.73-1.645-.467-.762.457-6.298.686-7.899s.65-8.808.173-10.039c-.172-.443-.725.301-.815-.057-.3-1.201.072-1.887.265-2.008.194-.12 1.456-.533 2.652-.925.471-.155-.85-.714-2.216-.498-1.087.171-1.43.214-2.116 0-.546-.171-1.158.557-.4 1.658.707 1.027.157 1.168.114 2.459-.014.429-4.302-.987-5.832-.629-.991.231-2.385.237-2.63.686-.086.157-.751-.978-.29-1.632.461-.655.375-1.092.719-1.47.428-.472.473-.477.823-.66.349-.183-.738-.712-1.338-.112-.805.805-.598.027-1.415 1.544-.601 1.115-1.158.557-1.358 1.015-.426.974.829 1.415 1.058 1.644.228.228-.542.132-.542.132s1.328 3.055 2.557 4.456c.764.87.729 1.158 1.215 3.088.647 2.568 1.301 5.117 1.873 6.261.572 1.143 1.072 1.715 1.243 2.744.172 1.03.086 1.687.086 1.973s-.729-2.873-1.486-2.973c-1.114-.147-2.33.529-2.917.886-.409.249-1.6 1.086-1.6 1.086l-.487-.2.016-7.476-.252-.12-.263.12-.315 7.606s-.963.903-.815 2.386c.057.572.403.278.602.253.198-.024-.429 2.007-.429 2.007s-.93-.015-.644-.873c.158-.474-1.76.812-.229 1.944.329.243.616.358.973.057.138-.116-.847 3.134 3.144 2.802.686-.057-2.708.188-.8-2.116 1.658-2.001-.572-1.829-.572-1.829s-1.416.957-1.473-.129c-.057-1.087.181.658.787-.1.457-.572.771-.115 1.315-.115.343 0-1.075-.023-.967-1.704.023-.354.401-.074.58-.826l.143-.6s1.801-.929 2.259-.987c.457-.057 1.086-.357 1.315-.128.228.229.528 2.015.7 2.873.146.729.429 1.801 1.115 1.801s2.128.391 2.53 1.558c.139.403-.795-.312-1.087 1.089-.059.279.243.934.7.934.458 0-.7 1.84 2.234 1.869.673.007 1.557-.753 1.557-.753" fill="#fff" transform="matrix(1.3333 0 0 -1.3333 190.31 91.244)"/></g><path d="m0 0c.618-.43.168-1.617.168-1.617s.086-.528.187-.9l-.263-.088-.029-.248-.204-.029.039-.157-.214-.164s-.002-.125.014-.365c.014-.191-.379-.328-.744-.19-.07.026-.231.104-.307.029-.108-.106-.158-.419-.078-.539.117-.175.738-.429 1.801-.429.943 0 2.616-.6 3.774-.672.57-.035 3.627.093 5.014.02 1.241-.066 2.336.262 4.789-.351.417-.104.04-.446-.818-.35-.782.088-1.363-.116-1.62-.088-.258.029.64-.067 1.226-.262.438-.146-.078-.348-.993-.234s-1.317-.518-1.881.293c-.323.466-2.63-.6-4.206-.643-1.752-.049-2.09.066-2.964.102-1.416.058-2.18.235-2.187.114-.008-.171.168-.978.08-1.66-.102-.801-.426-1.15-.73-1.645-.467-.762.457-6.298.686-7.899s.65-8.808.173-10.039c-.172-.443-.725.301-.815-.057-.3-1.201.072-1.887.265-2.008.194-.12 1.456-.533 2.652-.925.471-.155-.85-.714-2.216-.498-1.087.171-1.43.214-2.116 0-.546-.171-1.158.557-.4 1.658.707 1.027.157 1.168.114 2.459-.014.429-4.302-.987-5.832-.629-.991.231-2.385.237-2.63.686-.086.157-.751-.978-.29-1.632.461-.655.375-1.092.719-1.47.428-.472.473-.477.823-.66.349-.183-.738-.712-1.338-.112-.805.805-.598.027-1.415 1.544-.601 1.115-1.158.557-1.358 1.015-.426.974.829 1.415 1.058 1.644.228.228-.542.132-.542.132s1.328 3.055 2.557 4.456c.764.87.729 1.158 1.215 3.088.647 2.568 1.301 5.117 1.873 6.261.572 1.143 1.072 1.715 1.243 2.744.172 1.03.086 1.687.086 1.973s-.729-2.873-1.486-2.973c-1.114-.147-2.33.529-2.917.886-.409.249-1.6 1.086-1.6 1.086l-.487-.2.016-7.476-.252-.12-.263.12-.315 7.606s-.963.903-.815 2.386c.057.572.403.278.602.253.198-.024-.429 2.007-.429 2.007s-.93-.015-.644-.873c.158-.474-1.76.812-.229 1.944.329.243.616.358.973.057.138-.116-.847 3.134 3.144 2.802.686-.057-2.708.188-.8-2.116 1.658-2.001-.572-1.829-.572-1.829s-1.416.957-1.473-.129c-.057-1.087.181.658.787-.1.457-.572.771-.115 1.315-.115.343 0-1.075-.023-.967-1.704.023-.354.401-.074.58-.826l.143-.6s1.801-.929 2.259-.987c.457-.057 1.086-.357 1.315-.128.228.229.528 2.015.7 2.873.146.729.429 1.801 1.115 1.801s2.128.391 2.53 1.558c.139.403-.795-.312-1.087 1.089-.059.279.243.934.7.934.458 0-.7 1.84 2.234 1.869.673.007 1.557-.753 1.557-.753" fill="#fff" stroke-width=".108" transform="matrix(1.3333 0 0 -1.3333 190.31 91.244)"/><path d="m0 0c-.11-.109-.511-.265-.644-.284-.156-.023-.358-.334-.493-.435-.084-.063-.112-.115-.209-.161-.098-.046-.19.008-.282-.079-.119-.113-.18-.488-.236-.648-.089-.254-.264-.387-.478-.529-.232-.153-.154-.234-.309-.508-.072-.127-.132-.251-.312-.129-.205.139-.004.369.025.53.062.344-.177.712-.463.799-.261.08-.522-.03-.769-.244-.525-.455-.06-1.09.202-1.223.103-.053.392-.08.524-.054.09.018.329.042.394-.004.183-.13-.117-.306.016-.468.144-.174.438-.196.578-.053.229.235.192.408.245.659.082.389.446.368.629.64.129.191.006.307.052.483s.19.206.317.314c.235.198.318.398.603.534.166.08.841.463.696.63" fill="none" stroke="#a8996e" stroke-width=".081" transform="matrix(1.3333 0 0 -1.3333 190.56 91.053)"/></g></svg>